<?xml version="1.0" encoding="UTF-8" standalone="no"?>
<svg width="64px" height="286px" viewBox="0 0 64 286" version="1.1" xmlns="http://www.w3.org/2000/svg" xmlns:xlink="http://www.w3.org/1999/xlink" xmlns:sketch="http://www.bohemiancoding.com/sketch/ns">
    <!-- Generator: Sketch 3.0.3 (7892) - http://www.bohemiancoding.com/sketch -->
    <title>eye 2</title>
    <desc>Created with Sketch.</desc>
    <defs></defs>
    <g id="Page-1" stroke="none" stroke-width="1" fill="none" fill-rule="evenodd" sketch:type="MSPage">
        <g id="columns-3" sketch:type="MSLayerGroup" transform="translate(1.000000, 106.000000)" fill="#555555">
            <path d="M26.25,0 L3.75,0 C1.678125,0 0,1.64083333 0,3.66666667 L0,18.3333333 C0,20.3591667 1.678125,22 3.75,22 L26.25,22 C28.321875,22 30,20.3591667 30,18.3333333 L30,3.66666667 C30,1.64083333 28.321875,0 26.25,0 L26.25,0 Z M18.75,2.44444444 L18.75,19.5555556 L11.25,19.5555556 L11.25,2.44444444 L18.75,2.44444444 L18.75,2.44444444 Z M2.5,18.3333333 L2.5,3.66666667 C2.5,2.99138889 3.059375,2.44444444 3.75,2.44444444 L8.75,2.44444444 L8.75,19.5555556 L3.75,19.5555556 C3.059375,19.5555556 2.5,19.0086111 2.5,18.3333333 L2.5,18.3333333 Z M27.5,18.3333333 C27.5,19.0086111 26.940625,19.5555556 26.25,19.5555556 L21.25,19.5555556 L21.25,2.44444444 L26.25,2.44444444 C26.940625,2.44444444 27.5,2.99138889 27.5,3.66666667 L27.5,18.3333333 L27.5,18.3333333 Z" id="Shape" sketch:type="MSShapeGroup"></path>
        </g>
        <g id="align-left-2" sketch:type="MSLayerGroup" transform="translate(1.000000, 133.000000)" fill="#555555">
            <path d="M1.5,3 L28.5,3 C29.328375,3 30,2.328375 30,1.5 C30,0.671625 29.328375,0 28.5,0 L1.5,0 C0.671625,0 0,0.671625 0,1.5 C0,2.328375 0.671625,3 1.5,3 L1.5,3 Z M1.5,9 L22.5,9 C23.328375,9 24,8.328375 24,7.5 C24,6.671625 23.328375,6 22.5,6 L1.5,6 C0.671625,6 0,6.671625 0,7.5 C0,8.328375 0.671625,9 1.5,9 L1.5,9 Z M28.5,12 L1.5,12 C0.671625,12 0,12.671625 0,13.5 C0,14.328375 0.671625,15 1.5,15 L28.5,15 C29.328375,15 30,14.328375 30,13.5 C30,12.671625 29.328375,12 28.5,12 L28.5,12 Z M22.5,18 L1.5,18 C0.671625,18 0,18.671625 0,19.5 C0,20.328375 0.671625,21 1.5,21 L22.5,21 C23.328375,21 24,20.328375 24,19.5 C24,18.671625 23.328375,18 22.5,18 L22.5,18 Z" id="Shape" sketch:type="MSShapeGroup"></path>
        </g>
        <g id="cog-2" sketch:type="MSLayerGroup" transform="translate(3.000000, 157.000000)" fill="#555555">
            <path d="M21,15 C22.65675,15 24,13.65675 24,12 C24,10.34325 22.65675,9 21,9 L20.48775,9 C20.38125,8.699 20.2595,8.40525 20.12275,8.11975 L20.48525,7.7575 C21.65675,6.58575 21.65675,4.6865 20.48525,3.51475 C19.3135,2.34325 17.41425,2.34325 16.2425,3.51475 L15.88025,3.87725 C15.5945,3.7405 15.301,3.61875 15,3.51225 L15,3 C15,1.34325 13.65675,0 12,0 C10.34325,0 9,1.34325 9,3 L9,3.51225 C8.699,3.61875 8.40525,3.7405 8.11975,3.87725 L7.7575,3.51475 C6.58575,2.34325 4.6865,2.34325 3.51475,3.51475 C2.34325,4.6865 2.34325,6.58575 3.51475,7.7575 L3.87725,8.11975 C3.7405,8.4055 3.61875,8.699 3.51225,9 L3,9 C1.34325,9 0,10.34325 0,12 C0,13.65675 1.34325,15 3,15 L3.51225,15 C3.61875,15.301 3.7405,15.59475 3.87725,15.88025 L3.51475,16.2425 C2.34325,17.41425 2.34325,19.3135 3.51475,20.48525 C4.6865,21.65675 6.58575,21.65675 7.7575,20.48525 L8.11975,20.12275 C8.4055,20.2595 8.699,20.38125 9,20.48775 L9,21 C9,22.65675 10.34325,24 12,24 C13.65675,24 15,22.65675 15,21 L15,20.48775 C15.301,20.38125 15.59475,20.2595 15.88025,20.12275 L16.2425,20.48525 C17.41425,21.65675 19.3135,21.65675 20.48525,20.48525 C21.65675,19.3135 21.65675,17.41425 20.48525,16.2425 L20.12275,15.88025 C20.2595,15.5945 20.38125,15.301 20.48775,15 L21,15 L21,15 Z M18.92925,13 C18.7595,14.186 18.2925,15.276 17.6065,16.19225 L19.03175,17.61775 L19.071,17.65675 C19.4615,18.04725 19.4615,18.68075 19.071,19.071 C18.6805,19.46125 18.04725,19.4615 17.65675,19.071 L17.61775,19.03175 L16.19225,17.6065 C15.276,18.2925 14.186,18.7595 13,18.92925 L13,21 C13,21.55225 12.55225,22 12,22 C11.44775,22 11,21.55225 11,21 L11,18.92925 C9.814,18.7595 8.724,18.2925 7.80775,17.6065 L6.38225,19.03175 L6.34325,19.071 C5.95275,19.4615 5.31925,19.4615 4.929,19.071 C4.53875,18.6805 4.5385,18.04725 4.929,17.65675 L4.96825,17.61775 L6.3935,16.19225 C5.7075,15.276 5.2405,14.186 5.07075,13 L3,13 C2.44775,13 2,12.55225 2,12 C2,11.44775 2.44775,11 3,11 L5.07075,11 C5.2405,9.814 5.7075,8.724 6.3935,7.80775 L4.96825,6.38225 L4.929,6.34325 C4.5385,5.95275 4.5385,5.31925 4.929,4.929 C5.3195,4.53875 5.95275,4.5385 6.34325,4.929 L6.38225,4.96825 L7.80775,6.3935 C8.724,5.7075 9.81375,5.2405 11,5.07075 L11,3 C11,2.44775 11.44775,2 12,2 C12.55225,2 13,2.44775 13,3 L13,5.07075 C14.186,5.2405 15.276,5.7075 16.19225,6.3935 L17.61775,4.96825 L17.65675,4.929 C18.04725,4.5385 18.68075,4.5385 19.071,4.929 C19.46125,5.3195 19.4615,5.95275 19.071,6.34325 L19.03175,6.38225 L17.6065,7.80775 C18.2925,8.724 18.7595,9.81375 18.92925,11 L21,11 C21.55225,11 22,11.44775 22,12 C22,12.55225 21.55225,13 21,13 L18.92925,13 L18.92925,13 Z M12,8 C9.79075,8 8,9.79075 8,12 C8,14.20925 9.79075,16 12,16 C14.20925,16 16,14.20925 16,12 C16,9.79075 14.20925,8 12,8 L12,8 Z M12,14 C10.8955,14 10,13.1045 10,12 C10,10.8955 10.8955,10 12,10 C13.1045,10 14,10.8955 14,12 C14,13.1045 13.1045,14 12,14 L12,14 Z" id="Shape" sketch:type="MSShapeGroup"></path>
        </g>
        <g id="toggle-2" sketch:type="MSLayerGroup" transform="translate(1.000000, 185.000000)" fill="#555555">
            <path d="M20,0 L10,0 C4.478125,0 0,4.478125 0,10 C0,15.521875 4.478125,20 10,20 L20,20 C25.521875,20 30,15.521875 30,10 C30,4.478125 25.521875,0 20,0 L20,0 Z M20,17.5 L10,17.5 C5.8578125,17.5 2.5,14.1421875 2.5,10 C2.5,5.8578125 5.8578125,2.5 10,2.5 L20,2.5 C24.1421875,2.5 27.5,5.8578125 27.5,10 C27.5,14.1421875 24.1421875,17.5 20,17.5 L20,17.5 Z M10,5 C7.23875,5 5,7.23875 5,10 C5,12.76125 7.23875,15 10,15 C12.76125,15 15,12.76125 15,10 C15,7.23875 12.76125,5 10,5 L10,5 Z M10,12.5 C8.619375,12.5 7.5,11.380625 7.5,10 C7.5,8.619375 8.619375,7.5 10,7.5 C11.380625,7.5 12.5,8.619375 12.5,10 C12.5,11.380625 11.380625,12.5 10,12.5 L10,12.5 Z" id="Shape" sketch:type="MSShapeGroup"></path>
        </g>
        <g id="columns-4" sketch:type="MSLayerGroup" transform="translate(33.000000, 106.000000)" fill="#31D0E0">
            <path d="M26.25,0 L3.75,0 C1.678125,0 0,1.64083333 0,3.66666667 L0,18.3333333 C0,20.3591667 1.678125,22 3.75,22 L26.25,22 C28.321875,22 30,20.3591667 30,18.3333333 L30,3.66666667 C30,1.64083333 28.321875,0 26.25,0 L26.25,0 Z M18.75,2.44444444 L18.75,19.5555556 L11.25,19.5555556 L11.25,2.44444444 L18.75,2.44444444 L18.75,2.44444444 Z M2.5,18.3333333 L2.5,3.66666667 C2.5,2.99138889 3.059375,2.44444444 3.75,2.44444444 L8.75,2.44444444 L8.75,19.5555556 L3.75,19.5555556 C3.059375,19.5555556 2.5,19.0086111 2.5,18.3333333 L2.5,18.3333333 Z M27.5,18.3333333 C27.5,19.0086111 26.940625,19.5555556 26.25,19.5555556 L21.25,19.5555556 L21.25,2.44444444 L26.25,2.44444444 C26.940625,2.44444444 27.5,2.99138889 27.5,3.66666667 L27.5,18.3333333 L27.5,18.3333333 Z" id="Shape" sketch:type="MSShapeGroup"></path>
        </g>
        <g id="align-left-3" sketch:type="MSLayerGroup" transform="translate(33.000000, 133.000000)" fill="#31D0E0">
            <path d="M1.5,3 L28.5,3 C29.328375,3 30,2.328375 30,1.5 C30,0.671625 29.328375,0 28.5,0 L1.5,0 C0.671625,0 0,0.671625 0,1.5 C0,2.328375 0.671625,3 1.5,3 L1.5,3 Z M1.5,9 L22.5,9 C23.328375,9 24,8.328375 24,7.5 C24,6.671625 23.328375,6 22.5,6 L1.5,6 C0.671625,6 0,6.671625 0,7.5 C0,8.328375 0.671625,9 1.5,9 L1.5,9 Z M28.5,12 L1.5,12 C0.671625,12 0,12.671625 0,13.5 C0,14.328375 0.671625,15 1.5,15 L28.5,15 C29.328375,15 30,14.328375 30,13.5 C30,12.671625 29.328375,12 28.5,12 L28.5,12 Z M22.5,18 L1.5,18 C0.671625,18 0,18.671625 0,19.5 C0,20.328375 0.671625,21 1.5,21 L22.5,21 C23.328375,21 24,20.328375 24,19.5 C24,18.671625 23.328375,18 22.5,18 L22.5,18 Z" id="Shape" sketch:type="MSShapeGroup"></path>
        </g>
        <g id="cog-3" sketch:type="MSLayerGroup" transform="translate(35.000000, 157.000000)" fill="#31D0E0">
            <path d="M21,15 C22.65675,15 24,13.65675 24,12 C24,10.34325 22.65675,9 21,9 L20.48775,9 C20.38125,8.699 20.2595,8.40525 20.12275,8.11975 L20.48525,7.7575 C21.65675,6.58575 21.65675,4.6865 20.48525,3.51475 C19.3135,2.34325 17.41425,2.34325 16.2425,3.51475 L15.88025,3.87725 C15.5945,3.7405 15.301,3.61875 15,3.51225 L15,3 C15,1.34325 13.65675,0 12,0 C10.34325,0 9,1.34325 9,3 L9,3.51225 C8.699,3.61875 8.40525,3.7405 8.11975,3.87725 L7.7575,3.51475 C6.58575,2.34325 4.6865,2.34325 3.51475,3.51475 C2.34325,4.6865 2.34325,6.58575 3.51475,7.7575 L3.87725,8.11975 C3.7405,8.4055 3.61875,8.699 3.51225,9 L3,9 C1.34325,9 0,10.34325 0,12 C0,13.65675 1.34325,15 3,15 L3.51225,15 C3.61875,15.301 3.7405,15.59475 3.87725,15.88025 L3.51475,16.2425 C2.34325,17.41425 2.34325,19.3135 3.51475,20.48525 C4.6865,21.65675 6.58575,21.65675 7.7575,20.48525 L8.11975,20.12275 C8.4055,20.2595 8.699,20.38125 9,20.48775 L9,21 C9,22.65675 10.34325,24 12,24 C13.65675,24 15,22.65675 15,21 L15,20.48775 C15.301,20.38125 15.59475,20.2595 15.88025,20.12275 L16.2425,20.48525 C17.41425,21.65675 19.3135,21.65675 20.48525,20.48525 C21.65675,19.3135 21.65675,17.41425 20.48525,16.2425 L20.12275,15.88025 C20.2595,15.5945 20.38125,15.301 20.48775,15 L21,15 L21,15 Z M18.92925,13 C18.7595,14.186 18.2925,15.276 17.6065,16.19225 L19.03175,17.61775 L19.071,17.65675 C19.4615,18.04725 19.4615,18.68075 19.071,19.071 C18.6805,19.46125 18.04725,19.4615 17.65675,19.071 L17.61775,19.03175 L16.19225,17.6065 C15.276,18.2925 14.186,18.7595 13,18.92925 L13,21 C13,21.55225 12.55225,22 12,22 C11.44775,22 11,21.55225 11,21 L11,18.92925 C9.814,18.7595 8.724,18.2925 7.80775,17.6065 L6.38225,19.03175 L6.34325,19.071 C5.95275,19.4615 5.31925,19.4615 4.929,19.071 C4.53875,18.6805 4.5385,18.04725 4.929,17.65675 L4.96825,17.61775 L6.3935,16.19225 C5.7075,15.276 5.2405,14.186 5.07075,13 L3,13 C2.44775,13 2,12.55225 2,12 C2,11.44775 2.44775,11 3,11 L5.07075,11 C5.2405,9.814 5.7075,8.724 6.3935,7.80775 L4.96825,6.38225 L4.929,6.34325 C4.5385,5.95275 4.5385,5.31925 4.929,4.929 C5.3195,4.53875 5.95275,4.5385 6.34325,4.929 L6.38225,4.96825 L7.80775,6.3935 C8.724,5.7075 9.81375,5.2405 11,5.07075 L11,3 C11,2.44775 11.44775,2 12,2 C12.55225,2 13,2.44775 13,3 L13,5.07075 C14.186,5.2405 15.276,5.7075 16.19225,6.3935 L17.61775,4.96825 L17.65675,4.929 C18.04725,4.5385 18.68075,4.5385 19.071,4.929 C19.46125,5.3195 19.4615,5.95275 19.071,6.34325 L19.03175,6.38225 L17.6065,7.80775 C18.2925,8.724 18.7595,9.81375 18.92925,11 L21,11 C21.55225,11 22,11.44775 22,12 C22,12.55225 21.55225,13 21,13 L18.92925,13 L18.92925,13 Z M12,8 C9.79075,8 8,9.79075 8,12 C8,14.20925 9.79075,16 12,16 C14.20925,16 16,14.20925 16,12 C16,9.79075 14.20925,8 12,8 L12,8 Z M12,14 C10.8955,14 10,13.1045 10,12 C10,10.8955 10.8955,10 12,10 C13.1045,10 14,10.8955 14,12 C14,13.1045 13.1045,14 12,14 L12,14 Z" id="Shape" sketch:type="MSShapeGroup"></path>
        </g>
        <g id="toggle-3" sketch:type="MSLayerGroup" transform="translate(33.000000, 185.000000)" fill="#31D0E0">
            <path d="M20,0 L10,0 C4.478125,0 0,4.478125 0,10 C0,15.521875 4.478125,20 10,20 L20,20 C25.521875,20 30,15.521875 30,10 C30,4.478125 25.521875,0 20,0 L20,0 Z M20,17.5 L10,17.5 C5.8578125,17.5 2.5,14.1421875 2.5,10 C2.5,5.8578125 5.8578125,2.5 10,2.5 L20,2.5 C24.1421875,2.5 27.5,5.8578125 27.5,10 C27.5,14.1421875 24.1421875,17.5 20,17.5 L20,17.5 Z M10,5 C7.23875,5 5,7.23875 5,10 C5,12.76125 7.23875,15 10,15 C12.76125,15 15,12.76125 15,10 C15,7.23875 12.76125,5 10,5 L10,5 Z M10,12.5 C8.619375,12.5 7.5,11.380625 7.5,10 C7.5,8.619375 8.619375,7.5 10,7.5 C11.380625,7.5 12.5,8.619375 12.5,10 C12.5,11.380625 11.380625,12.5 10,12.5 L10,12.5 Z" id="Shape" sketch:type="MSShapeGroup"></path>
        </g>
        <g id="maximize-2" sketch:type="MSLayerGroup" transform="translate(15.000000, 221.000000) rotate(-270.000000) translate(-15.000000, -221.000000) translate(3.000000, 209.000000)" fill="#555555">
            <path d="M3.72545455,2.18181818 L8.72727273,2.18181818 C9.33,2.18181818 9.81818182,1.69363636 9.81818182,1.09090909 C9.81818182,0.488181818 9.33,0 8.72727273,0 L1.09090909,0 C0.488181818,0 0,0.488181818 0,1.09090909 L0,8.72727273 C0,9.33 0.488181818,9.81818182 1.09090909,9.81818182 C1.69363636,9.81818182 2.18181818,9.33 2.18181818,8.72727273 L2.18181818,3.72545455 L9.03845455,10.5818182 C9.46636364,11.0072727 10.1566364,11.0072727 10.5818182,10.5818182 C11.007,10.1563636 11.0072727,9.46363636 10.5818182,9.03845455 L3.72545455,2.18181818 L3.72545455,2.18181818 Z M22.9090909,14.1733636 C22.3063636,14.1733636 21.8181818,14.6615455 21.8181818,15.2642727 L21.8181818,20.2660909 L14.958,13.4097273 C14.5298182,12.9842727 13.8357273,12.9842727 13.41,13.4097273 C12.9842727,13.8351818 12.9842727,14.532 13.41,14.9574545 L20.2666364,21.8181818 L15.2648182,21.8181818 C14.6618182,21.8181818 14.1739091,22.3063636 14.1739091,22.9090909 C14.1739091,23.5118182 14.6618182,24 15.2648182,24 L22.9011818,24 C23.5036364,24 24,23.5036364 24,22.9006364 L24,15.2642727 C24,14.6615455 23.5118182,14.1733636 22.9090909,14.1733636 L22.9090909,14.1733636 Z" id="Shape" sketch:type="MSShapeGroup"></path>
        </g>
        <g id="minimize-2" sketch:type="MSLayerGroup" transform="translate(15.000000, 247.000000) rotate(-270.000000) translate(-15.000000, -247.000000) translate(3.000000, 235.000000)" fill="#555555">
            <path d="M9.81845455,1.08245455 C9.21572727,1.08245455 8.72754545,1.57036364 8.72754545,2.17336364 L8.72754545,7.17545455 L1.86736364,0.318545455 C1.43918182,-0.107181818 0.745090909,-0.107181818 0.319363636,0.318545455 C-0.106636364,0.743727273 -0.106636364,1.44081818 0.319363636,1.86654545 L7.176,8.727 L2.17418182,8.727 C1.57118182,8.727 1.08327273,9.21518182 1.08327273,9.81790909 C1.08327273,10.4206364 1.57118182,10.9088182 2.17418182,10.9088182 L9.81054545,10.9088182 C10.413,10.9088182 10.9093636,10.4124545 10.9093636,9.81 L10.9093636,2.17336364 C10.9093636,1.57036364 10.4211818,1.08245455 9.81845455,1.08245455 L9.81845455,1.08245455 Z M23.6806364,22.1331818 L16.824,15.2724545 L21.8260909,15.2724545 C22.4285455,15.2724545 22.917,14.7842727 22.917,14.1815455 C22.917,13.5788182 22.4285455,13.0906364 21.8260909,13.0906364 L14.1894545,13.0906364 C13.5864545,13.0906364 13.0911818,13.5875455 13.0911818,14.1902727 L13.0911818,21.8266364 C13.0911818,22.4293636 13.5793636,22.9175455 14.1820909,22.9175455 C14.7848182,22.9175455 15.273,22.4293636 15.273,21.8266364 L15.273,16.8245455 L22.1334545,23.6811818 C22.5610909,24.1071818 23.2551818,24.1071818 23.6806364,23.6811818 C24.1066364,23.2557273 24.1066364,22.5589091 23.6806364,22.1331818 L23.6806364,22.1331818 Z" id="Shape" sketch:type="MSShapeGroup"></path>
        </g>
        <g id="maximize-3" sketch:type="MSLayerGroup" transform="translate(48.000000, 221.000000) rotate(-270.000000) translate(-48.000000, -221.000000) translate(36.000000, 209.000000)" fill="#31D0E0">
            <path d="M3.72545455,2.18181818 L8.72727273,2.18181818 C9.33,2.18181818 9.81818182,1.69363636 9.81818182,1.09090909 C9.81818182,0.488181818 9.33,0 8.72727273,0 L1.09090909,0 C0.488181818,0 0,0.488181818 0,1.09090909 L0,8.72727273 C0,9.33 0.488181818,9.81818182 1.09090909,9.81818182 C1.69363636,9.81818182 2.18181818,9.33 2.18181818,8.72727273 L2.18181818,3.72545455 L9.03845455,10.5818182 C9.46636364,11.0072727 10.1566364,11.0072727 10.5818182,10.5818182 C11.007,10.1563636 11.0072727,9.46363636 10.5818182,9.03845455 L3.72545455,2.18181818 L3.72545455,2.18181818 Z M22.9090909,14.1733636 C22.3063636,14.1733636 21.8181818,14.6615455 21.8181818,15.2642727 L21.8181818,20.2660909 L14.958,13.4097273 C14.5298182,12.9842727 13.8357273,12.9842727 13.41,13.4097273 C12.9842727,13.8351818 12.9842727,14.532 13.41,14.9574545 L20.2666364,21.8181818 L15.2648182,21.8181818 C14.6618182,21.8181818 14.1739091,22.3063636 14.1739091,22.9090909 C14.1739091,23.5118182 14.6618182,24 15.2648182,24 L22.9011818,24 C23.5036364,24 24,23.5036364 24,22.9006364 L24,15.2642727 C24,14.6615455 23.5118182,14.1733636 22.9090909,14.1733636 L22.9090909,14.1733636 Z" id="Shape" sketch:type="MSShapeGroup"></path>
        </g>
        <g id="minimize-3" sketch:type="MSLayerGroup" transform="translate(48.000000, 247.000000) rotate(-270.000000) translate(-48.000000, -247.000000) translate(36.000000, 235.000000)" fill="#31D0E0">
            <path d="M9.81845455,1.08245455 C9.21572727,1.08245455 8.72754545,1.57036364 8.72754545,2.17336364 L8.72754545,7.17545455 L1.86736364,0.318545455 C1.43918182,-0.107181818 0.745090909,-0.107181818 0.319363636,0.318545455 C-0.106636364,0.743727273 -0.106636364,1.44081818 0.319363636,1.86654545 L7.176,8.727 L2.17418182,8.727 C1.57118182,8.727 1.08327273,9.21518182 1.08327273,9.81790909 C1.08327273,10.4206364 1.57118182,10.9088182 2.17418182,10.9088182 L9.81054545,10.9088182 C10.413,10.9088182 10.9093636,10.4124545 10.9093636,9.81 L10.9093636,2.17336364 C10.9093636,1.57036364 10.4211818,1.08245455 9.81845455,1.08245455 L9.81845455,1.08245455 Z M23.6806364,22.1331818 L16.824,15.2724545 L21.8260909,15.2724545 C22.4285455,15.2724545 22.917,14.7842727 22.917,14.1815455 C22.917,13.5788182 22.4285455,13.0906364 21.8260909,13.0906364 L14.1894545,13.0906364 C13.5864545,13.0906364 13.0911818,13.5875455 13.0911818,14.1902727 L13.0911818,21.8266364 C13.0911818,22.4293636 13.5793636,22.9175455 14.1820909,22.9175455 C14.7848182,22.9175455 15.273,22.4293636 15.273,21.8266364 L15.273,16.8245455 L22.1334545,23.6811818 C22.5610909,24.1071818 23.2551818,24.1071818 23.6806364,23.6811818 C24.1066364,23.2557273 24.1066364,22.5589091 23.6806364,22.1331818 L23.6806364,22.1331818 Z" id="Shape" sketch:type="MSShapeGroup"></path>
        </g>
        <g id="flag-4" sketch:type="MSLayerGroup" transform="translate(5.000000, 27.000000)" fill="#555555">
            <path d="M16.2105263,2.18181818 C12.7368421,2.18181818 9.26315789,0 5.78947368,0 C2.31578947,0 0,1.09090909 0,1.09090909 L0,14.1818182 L0,16.3636364 L0,22.9090909 C0,23.5115455 0.518447368,24 1.15789474,24 C1.79734211,24 2.31578947,23.5115455 2.31578947,22.9090909 L2.31578947,15.6422727 C3.2505,15.4393636 4.43155263,15.2727273 5.78947368,15.2727273 C9.26315789,15.2727273 12.7368421,17.4545455 16.2105263,17.4545455 C19.6842105,17.4545455 22,16.3636364 22,16.3636364 L22,1.09090909 C22,1.09090909 19.6842105,2.18181818 16.2105263,2.18181818 L16.2105263,2.18181818 Z M19.6842105,14.8344545 C18.5558421,15.1295455 17.3811579,15.2727273 16.2105263,15.2727273 C14.5176842,15.2727273 12.8653684,14.6462727 11.2822368,14.1529091 C9.504,13.5984545 7.67886842,13.0909091 5.78947368,13.0909091 C4.62434211,13.0909091 3.45863158,13.1978182 2.31578947,13.4113636 L2.31578947,2.62009091 C3.44415789,2.325 4.61855263,2.18181818 5.78947368,2.18181818 C7.48231579,2.18181818 9.13463158,2.80827273 10.7177632,3.30163636 C12.496,3.85609091 14.3211316,4.36363636 16.2105263,4.36363636 C17.3756579,4.36363636 18.5413684,4.25672727 19.6842105,4.04318182 L19.6842105,14.8344545 L19.6842105,14.8344545 Z" id="Shape" sketch:type="MSShapeGroup"></path>
        </g>
        <g id="box-3" sketch:type="MSLayerGroup" transform="translate(5.000000, 53.000000)" fill="#555555">
            <path d="M11,0 L0,5 L0,19 L11,24 L22,19 L22,5 L11,0 L11,0 Z M11,2.1975 L18.375,5.55 L11,8.90225 L3.6225,5.55 L11,2.1975 L11,2.1975 Z M2,17.7125 L2,7.0075 L10,10.6425 L10,21.3475 L2,17.7125 L2,17.7125 Z M20,17.7125 L12,21.34775 L12,10.6425 L20,7.00725 L20,17.7125 L20,17.7125 Z" id="Shape" sketch:type="MSShapeGroup"></path>
        </g>
        <g id="bell-3" sketch:type="MSLayerGroup" transform="translate(3.000000, 79.000000)" fill="#555555">
            <path d="M27,19.6363636 C24.75,17.4545455 23.625,14.1818182 22.5,8.72727273 C21.5251875,4.00172727 18.4696875,0 13.5,0 C8.5303125,0 5.47453125,4.00172727 4.5,8.72727273 C3.375,14.1818182 2.25,17.4545455 0,19.6363636 L10.3210313,19.6363636 C10.1964375,19.9780909 10.125,20.3443636 10.125,20.7272727 C10.125,22.5346364 11.6361562,24 13.5,24 C15.3638437,24 16.875,22.5346364 16.875,20.7272727 C16.875,20.3443636 16.8035625,19.9780909 16.6789687,19.6363636 L27,19.6363636 L27,19.6363636 Z M6.70640625,9.15490909 C7.043625,7.51909091 8.530875,2.18181818 13.5,2.18181818 C18.469125,2.18181818 19.956375,7.51936364 20.2935937,9.15490909 C20.9908125,12.5364545 21.7082812,15.2484545 22.7750625,17.4545455 L4.22465625,17.4545455 C5.2914375,15.2484545 6.00890625,12.5364545 6.70640625,9.15490909 L6.70640625,9.15490909 Z M14.625,20.7272727 C14.625,21.3289091 14.1204375,21.8181818 13.5,21.8181818 C12.8795625,21.8181818 12.375,21.3289091 12.375,20.7272727 C12.375,20.1256364 12.8795625,19.6363636 13.5,19.6363636 C14.1204375,19.6363636 14.625,20.1256364 14.625,20.7272727 L14.625,20.7272727 Z" id="Shape" sketch:type="MSShapeGroup"></path>
        </g>
        <g id="flag-5" sketch:type="MSLayerGroup" transform="translate(37.000000, 27.000000)" fill="#31D0E0">
            <path d="M16.2105263,2.18181818 C12.7368421,2.18181818 9.26315789,0 5.78947368,0 C2.31578947,0 0,1.09090909 0,1.09090909 L0,14.1818182 L0,16.3636364 L0,22.9090909 C0,23.5115455 0.518447368,24 1.15789474,24 C1.79734211,24 2.31578947,23.5115455 2.31578947,22.9090909 L2.31578947,15.6422727 C3.2505,15.4393636 4.43155263,15.2727273 5.78947368,15.2727273 C9.26315789,15.2727273 12.7368421,17.4545455 16.2105263,17.4545455 C19.6842105,17.4545455 22,16.3636364 22,16.3636364 L22,1.09090909 C22,1.09090909 19.6842105,2.18181818 16.2105263,2.18181818 L16.2105263,2.18181818 Z M19.6842105,14.8344545 C18.5558421,15.1295455 17.3811579,15.2727273 16.2105263,15.2727273 C14.5176842,15.2727273 12.8653684,14.6462727 11.2822368,14.1529091 C9.504,13.5984545 7.67886842,13.0909091 5.78947368,13.0909091 C4.62434211,13.0909091 3.45863158,13.1978182 2.31578947,13.4113636 L2.31578947,2.62009091 C3.44415789,2.325 4.61855263,2.18181818 5.78947368,2.18181818 C7.48231579,2.18181818 9.13463158,2.80827273 10.7177632,3.30163636 C12.496,3.85609091 14.3211316,4.36363636 16.2105263,4.36363636 C17.3756579,4.36363636 18.5413684,4.25672727 19.6842105,4.04318182 L19.6842105,14.8344545 L19.6842105,14.8344545 Z" id="Shape" sketch:type="MSShapeGroup"></path>
        </g>
        <g id="box-4" sketch:type="MSLayerGroup" transform="translate(37.000000, 53.000000)" fill="#31D0E0">
            <path d="M11,0 L0,5 L0,19 L11,24 L22,19 L22,5 L11,0 L11,0 Z M11,2.1975 L18.375,5.55 L11,8.90225 L3.6225,5.55 L11,2.1975 L11,2.1975 Z M2,17.7125 L2,7.0075 L10,10.6425 L10,21.3475 L2,17.7125 L2,17.7125 Z M20,17.7125 L12,21.34775 L12,10.6425 L20,7.00725 L20,17.7125 L20,17.7125 Z" id="Shape" sketch:type="MSShapeGroup"></path>
        </g>
        <g id="bell-4" sketch:type="MSLayerGroup" transform="translate(35.000000, 79.000000)" fill="#31D0E0">
            <path d="M27,19.6363636 C24.75,17.4545455 23.625,14.1818182 22.5,8.72727273 C21.5251875,4.00172727 18.4696875,0 13.5,0 C8.5303125,0 5.47453125,4.00172727 4.5,8.72727273 C3.375,14.1818182 2.25,17.4545455 0,19.6363636 L10.3210313,19.6363636 C10.1964375,19.9780909 10.125,20.3443636 10.125,20.7272727 C10.125,22.5346364 11.6361562,24 13.5,24 C15.3638437,24 16.875,22.5346364 16.875,20.7272727 C16.875,20.3443636 16.8035625,19.9780909 16.6789687,19.6363636 L27,19.6363636 L27,19.6363636 Z M6.70640625,9.15490909 C7.043625,7.51909091 8.530875,2.18181818 13.5,2.18181818 C18.469125,2.18181818 19.956375,7.51936364 20.2935937,9.15490909 C20.9908125,12.5364545 21.7082812,15.2484545 22.7750625,17.4545455 L4.22465625,17.4545455 C5.2914375,15.2484545 6.00890625,12.5364545 6.70640625,9.15490909 L6.70640625,9.15490909 Z M14.625,20.7272727 C14.625,21.3289091 14.1204375,21.8181818 13.5,21.8181818 C12.8795625,21.8181818 12.375,21.3289091 12.375,20.7272727 C12.375,20.1256364 12.8795625,19.6363636 13.5,19.6363636 C14.1204375,19.6363636 14.625,20.1256364 14.625,20.7272727 L14.625,20.7272727 Z" id="Shape" sketch:type="MSShapeGroup"></path>
        </g>
        <g id="eye-3" sketch:type="MSLayerGroup" transform="translate(33.000000, 2.000000)" fill="#31D0E0">
            <g id="Group" transform="translate(0.000000, 0.019231)" sketch:type="MSShapeGroup">
                <path d="M15,0 C5,0 0,11.1569792 0,11.1569792 C0,11.1569792 5,22.2115385 15,22.2115385 C25,22.2115385 30,11.1057692 30,11.1057692 C30,11.1057692 25,0 15,0 L15,0 Z M15,19.7435897 C8.391875,19.7435897 4.2196875,13.6101202 2.8134375,11.1514263 C4.21875,8.66928686 8.391875,2.46794872 15,2.46794872 C21.609375,2.46794872 25.781875,8.63720353 27.186875,11.1057692 C25.779375,13.5786538 21.6078125,19.7435897 15,19.7435897 L15,19.7435897 Z M15,6.16987179 C12.23875,6.16987179 10,8.37991987 10,11.1057692 C10,13.8319271 12.23875,16.0416667 15,16.0416667 C17.7615625,16.0416667 20,13.8319271 20,11.1057692 C20,8.37991987 17.7615625,6.16987179 15,6.16987179 L15,6.16987179 Z M15,13.5737179 C13.6215625,13.5737179 12.5,12.4665345 12.5,11.1057692 C12.5,9.74500401 13.6215625,8.63782051 15,8.63782051 C16.3784375,8.63782051 17.5,9.74500401 17.5,11.1057692 C17.5,12.4665345 16.3784375,13.5737179 15,13.5737179 L15,13.5737179 Z" id="Shape"></path>
            </g>
        </g>
        <g id="eye-2" sketch:type="MSLayerGroup" fill="#555555">
            <g id="Group" transform="translate(1.000000, 2.019231)" sketch:type="MSShapeGroup">
                <path d="M15,0 C5,0 0,11.0507222 0,11.0507222 C0,11.0507222 5,22 15,22 C25,22 30,11 30,11 C30,11 25,0 15,0 L15,0 Z M15,19.5555556 C8.391875,19.5555556 4.2196875,13.4805 2.8134375,11.0452222 C4.21875,8.58672222 8.391875,2.44444444 15,2.44444444 C21.609375,2.44444444 25.781875,8.55494444 27.186875,11 C25.779375,13.4493333 21.6078125,19.5555556 15,19.5555556 L15,19.5555556 Z M15,6.11111111 C12.23875,6.11111111 10,8.30011111 10,11 C10,13.7001944 12.23875,15.8888889 15,15.8888889 C17.7615625,15.8888889 20,13.7001944 20,11 C20,8.30011111 17.7615625,6.11111111 15,6.11111111 L15,6.11111111 Z M15,13.4444444 C13.6215625,13.4444444 12.5,12.3478056 12.5,11 C12.5,9.65219444 13.6215625,8.55555556 15,8.55555556 C16.3784375,8.55555556 17.5,9.65219444 17.5,11 C17.5,12.3478056 16.3784375,13.4444444 15,13.4444444 L15,13.4444444 Z" id="Shape"></path>
            </g>
        </g>
        <path d="M15.1658182,261 C8.62472727,261 3.32,266.46975 3.32,273.2175 C3.32,278.61525 6.71418182,283.194 11.4218182,284.8095 C12.0145455,284.922 12.2305455,284.54475 12.2305455,284.22075 C12.2305455,283.93125 12.2203636,283.1625 12.2145455,282.14325 C8.91927273,282.88125 8.224,280.50525 8.224,280.50525 C7.68509091,279.09375 6.90836364,278.718 6.90836364,278.718 C5.83272727,277.9605 6.98981818,277.9755 6.98981818,277.9755 C8.17890909,278.06175 8.80436364,279.23475 8.80436364,279.23475 C9.86109091,281.1015 11.5774545,280.56225 12.2523636,280.2495 C12.36,279.4605 12.6661818,278.922 13.0043636,278.61675 C10.3738182,278.3085 7.608,277.26 7.608,272.5785 C7.608,271.245 8.06981818,270.15375 8.82763636,269.30025 C8.70545455,268.99125 8.29890909,267.7485 8.944,266.067 C8.944,266.067 9.93818182,265.7385 12.2014545,267.3195 C13.1461818,267.048 14.16,266.913 15.1672727,266.90775 C16.1738182,266.913 17.1869091,267.048 18.1330909,267.3195 C20.3949091,265.7385 21.3876364,266.067 21.3876364,266.067 C22.0341818,267.7485 21.6276364,268.99125 21.5061818,269.30025 C22.2654545,270.15375 22.7236364,271.245 22.7236364,272.5785 C22.7236364,277.272 19.9534545,278.30475 17.3149091,278.607 C17.7396364,278.98425 18.1185455,279.72975 18.1185455,280.86975 C18.1185455,282.5025 18.104,283.82025 18.104,284.22075 C18.104,284.54775 18.3178182,284.928 18.9185455,284.80875 C23.6225455,283.1895 27.0138182,278.61375 27.0138182,273.2175 C27.0138182,266.46975 21.7090909,261 15.1658182,261" id="Fill-12" fill="#555555" sketch:type="MSShapeGroup"></path>
        <path d="M48.1658182,261 C41.6247273,261 36.32,266.46975 36.32,273.2175 C36.32,278.61525 39.7141818,283.194 44.4218182,284.8095 C45.0145455,284.922 45.2305455,284.54475 45.2305455,284.22075 C45.2305455,283.93125 45.2203636,283.1625 45.2145455,282.14325 C41.9192727,282.88125 41.224,280.50525 41.224,280.50525 C40.6850909,279.09375 39.9083636,278.718 39.9083636,278.718 C38.8327273,277.9605 39.9898182,277.9755 39.9898182,277.9755 C41.1789091,278.06175 41.8043636,279.23475 41.8043636,279.23475 C42.8610909,281.1015 44.5774545,280.56225 45.2523636,280.2495 C45.36,279.4605 45.6661818,278.922 46.0043636,278.61675 C43.3738182,278.3085 40.608,277.26 40.608,272.5785 C40.608,271.245 41.0698182,270.15375 41.8276364,269.30025 C41.7054545,268.99125 41.2989091,267.7485 41.944,266.067 C41.944,266.067 42.9381818,265.7385 45.2014545,267.3195 C46.1461818,267.048 47.16,266.913 48.1672727,266.90775 C49.1738182,266.913 50.1869091,267.048 51.1330909,267.3195 C53.3949091,265.7385 54.3876364,266.067 54.3876364,266.067 C55.0341818,267.7485 54.6276364,268.99125 54.5061818,269.30025 C55.2654545,270.15375 55.7236364,271.245 55.7236364,272.5785 C55.7236364,277.272 52.9534545,278.30475 50.3149091,278.607 C50.7396364,278.98425 51.1185455,279.72975 51.1185455,280.86975 C51.1185455,282.5025 51.104,283.82025 51.104,284.22075 C51.104,284.54775 51.3178182,284.928 51.9185455,284.80875 C56.6225455,283.1895 60.0138182,278.61375 60.0138182,273.2175 C60.0138182,266.46975 54.7090909,261 48.1658182,261" id="Fill-13" fill="#31D0E0" sketch:type="MSShapeGroup"></path>
    </g>
</svg>